<?xml version="1.0" encoding="UTF-8" standalone="no"?>
<!DOCTYPE svg PUBLIC "-//W3C//DTD SVG 1.1//EN"
 "http://www.w3.org/Graphics/SVG/1.1/DTD/svg11.dtd">
<!-- Generated by graphviz version 3.0.0 (0)
 -->
<!-- Title: GitRepos Pages: 1 -->
<svg width="596pt" height="596pt"
 viewBox="0.00 0.00 596.05 596.05" xmlns="http://www.w3.org/2000/svg" xmlns:xlink="http://www.w3.org/1999/xlink">
<g id="graph0" class="graph" transform="scale(1 1) rotate(0) translate(4 592.05)">
<title>GitRepos</title>
<!-- main -->
<g id="node1" class="node">
<title>main</title>
<ellipse fill="lightgrey" stroke="black" cx="294.02" cy="-294.02" rx="49.14" ry="49.14"/>
<text text-anchor="middle" x="294.02" y="-290.32" font-family="Helvetica,sans-Serif" font-size="14.00" fill="white">MOM&#45;ocean</text>
</g>
<!-- ncep -->
<g id="node2" class="node">
<title>ncep</title>
<ellipse fill="cornflowerblue" stroke="black" cx="427.06" cy="-349.13" rx="51.92" ry="51.92"/>
<text text-anchor="middle" x="427.06" y="-345.43" font-family="Helvetica,sans-Serif" font-size="14.00" fill="white">NOAA&#45;NCEP</text>
</g>
<!-- ncep&#45;&gt;main -->
<g id="edge2" class="edge">
<title>ncep&#45;&gt;main</title>
<path fill="none" stroke="white" d="M369.59,-325.32C362.89,-322.55 356.06,-319.72 349.39,-316.96"/>
<polygon fill="white" stroke="white" points="368.46,-328.64 379.03,-329.24 371.13,-322.18 368.46,-328.64"/>
<polygon fill="white" stroke="white" points="350.34,-313.56 339.76,-312.97 347.66,-320.03 350.34,-313.56"/>
</g>
<!-- ncar -->
<g id="node3" class="node">
<title>ncar</title>
<ellipse fill="mediumaquamarine" stroke="black" cx="294.02" cy="-438.02" rx="36" ry="36"/>
<text text-anchor="middle" x="294.02" y="-434.32" font-family="Helvetica,sans-Serif" font-size="14.00" fill="white">NCAR</text>
</g>
<!-- ncar&#45;&gt;main -->
<g id="edge4" class="edge">
<title>ncar&#45;&gt;main</title>
<path fill="none" stroke="white" d="M294.02,-391.34C294.02,-379.17 294.02,-365.9 294.02,-353.18"/>
<polygon fill="white" stroke="white" points="290.52,-391.69 294.02,-401.69 297.52,-391.69 290.52,-391.69"/>
<polygon fill="white" stroke="white" points="297.52,-353.13 294.02,-343.13 290.52,-353.13 297.52,-353.13"/>
</g>
<!-- gfdl -->
<g id="node4" class="node">
<title>gfdl</title>
<ellipse fill="deepskyblue" stroke="black" cx="150.02" cy="-294.02" rx="51.36" ry="51.36"/>
<text text-anchor="middle" x="150.02" y="-290.32" font-family="Helvetica,sans-Serif" font-size="14.00" fill="white">NOAA&#45;GFDL</text>
</g>
<!-- gfdl&#45;&gt;main -->
<g id="edge1" class="edge">
<title>gfdl&#45;&gt;main</title>
<path fill="none" stroke="white" d="M211.63,-294.02C219.24,-294.02 226.99,-294.02 234.56,-294.02"/>
<polygon fill="white" stroke="white" points="211.61,-290.52 201.61,-294.02 211.61,-297.52 211.61,-290.52"/>
<polygon fill="white" stroke="white" points="234.73,-297.52 244.73,-294.02 234.73,-290.52 234.73,-297.52"/>
</g>
<!-- esmg -->
<g id="node5" class="node">
<title>esmg</title>
<ellipse fill="salmon" stroke="black" cx="238.92" cy="-160.99" rx="37.85" ry="37.85"/>
<text text-anchor="middle" x="238.92" y="-164.79" font-family="Helvetica,sans-Serif" font-size="14.00" fill="white">Rutgers</text>
<text text-anchor="middle" x="238.92" y="-149.79" font-family="Helvetica,sans-Serif" font-size="14.00" fill="white">ESMG</text>
</g>
<!-- esmg&#45;&gt;main -->
<g id="edge5" class="edge">
<title>esmg&#45;&gt;main</title>
<path fill="none" stroke="white" d="M257.25,-205.25C261.73,-216.05 266.57,-227.74 271.23,-238.98"/>
<polygon fill="white" stroke="white" points="260.46,-203.84 253.4,-195.94 253.99,-206.52 260.46,-203.84"/>
<polygon fill="white" stroke="white" points="268.02,-240.39 275.08,-248.29 274.49,-237.71 268.02,-240.39"/>
</g>
<!-- fsu -->
<g id="node6" class="node">
<title>fsu</title>
<ellipse fill="orange" stroke="black" cx="349.13" cy="-160.99" rx="41.31" ry="41.31"/>
<text text-anchor="middle" x="349.13" y="-157.29" font-family="Helvetica,sans-Serif" font-size="14.00" fill="white">FSU/Navy</text>
</g>
<!-- fsu&#45;&gt;main -->
<g id="edge6" class="edge">
<title>fsu&#45;&gt;main</title>
<path fill="none" stroke="white" d="M329.51,-208.36C325.38,-218.32 321,-228.9 316.77,-239.11"/>
<polygon fill="white" stroke="white" points="332.75,-209.69 333.34,-199.11 326.28,-207.01 332.75,-209.69"/>
<polygon fill="white" stroke="white" points="313.54,-237.77 312.94,-248.35 320,-240.45 313.54,-237.77"/>
</g>
<!-- nasa -->
<g id="node7" class="node">
<title>nasa</title>
<ellipse fill="white" stroke="black" cx="427.06" cy="-238.92" rx="53.09" ry="53.09"/>
<text text-anchor="middle" x="427.06" y="-235.22" font-family="Helvetica,sans-Serif" font-size="14.00" fill="white">NASA/GMAO</text>
</g>
<!-- nasa&#45;&gt;main -->
<g id="edge3" class="edge">
<title>nasa&#45;&gt;main</title>
<path fill="none" stroke="white" d="M368.09,-263.35C361.83,-265.94 355.48,-268.57 349.27,-271.14"/>
<polygon fill="white" stroke="white" points="369.63,-266.5 377.52,-259.44 366.95,-260.03 369.63,-266.5"/>
<polygon fill="white" stroke="white" points="347.55,-268.07 339.65,-275.13 350.22,-274.53 347.55,-268.07"/>
</g>
<!-- u_ncep -->
<g id="node8" class="node">
<title>u_ncep</title>
<ellipse fill="cornflowerblue" stroke="black" cx="560.1" cy="-404.24" rx="27.9" ry="27.9"/>
<text text-anchor="middle" x="560.1" y="-400.54" font-family="Helvetica,sans-Serif" font-size="14.00" fill="white">user</text>
</g>
<!-- u_ncep&#45;&gt;ncep -->
<g id="edge7" class="edge">
<title>u_ncep&#45;&gt;ncep</title>
<path fill="none" stroke="white" d="M534.14,-393.48C519.97,-387.61 501.84,-380.1 484.54,-372.94"/>
<polygon fill="white" stroke="white" points="485.62,-369.6 475.05,-369.01 482.94,-376.07 485.62,-369.6"/>
</g>
<!-- u1_ncar -->
<g id="node9" class="node">
<title>u1_ncar</title>
<ellipse fill="mediumaquamarine" stroke="black" cx="404.24" cy="-560.1" rx="27.9" ry="27.9"/>
<text text-anchor="middle" x="404.24" y="-556.4" font-family="Helvetica,sans-Serif" font-size="14.00" fill="white">user</text>
</g>
<!-- u1_ncar&#45;&gt;ncar -->
<g id="edge8" class="edge">
<title>u1_ncar&#45;&gt;ncar</title>
<path fill="none" stroke="white" d="M385.29,-539.12C368.85,-520.9 344.71,-494.17 325.39,-472.77"/>
<polygon fill="white" stroke="white" points="327.81,-470.23 318.51,-465.15 322.62,-474.92 327.81,-470.23"/>
</g>
<!-- u2_ncar -->
<g id="node10" class="node">
<title>u2_ncar</title>
<ellipse fill="mediumaquamarine" stroke="black" cx="183.81" cy="-560.1" rx="27.9" ry="27.9"/>
<text text-anchor="middle" x="183.81" y="-556.4" font-family="Helvetica,sans-Serif" font-size="14.00" fill="white">user</text>
</g>
<!-- u2_ncar&#45;&gt;ncar -->
<g id="edge9" class="edge">
<title>u2_ncar&#45;&gt;ncar</title>
<path fill="none" stroke="white" d="M202.76,-539.12C219.2,-520.9 243.34,-494.17 262.66,-472.77"/>
<polygon fill="white" stroke="white" points="265.43,-474.92 269.54,-465.15 260.24,-470.23 265.43,-474.92"/>
</g>
<!-- u1_gfdl -->
<g id="node11" class="node">
<title>u1_gfdl</title>
<ellipse fill="deepskyblue" stroke="black" cx="27.95" cy="-404.24" rx="27.9" ry="27.9"/>
<text text-anchor="middle" x="27.95" y="-400.54" font-family="Helvetica,sans-Serif" font-size="14.00" fill="white">user</text>
</g>
<!-- u1_gfdl&#45;&gt;gfdl -->
<g id="edge10" class="edge">
<title>u1_gfdl&#45;&gt;gfdl</title>
<path fill="none" stroke="white" d="M48.93,-385.29C64.1,-371.6 85.17,-352.57 104.15,-335.44"/>
<polygon fill="white" stroke="white" points="106.51,-338.03 111.58,-328.73 101.82,-332.83 106.51,-338.03"/>
</g>
<!-- u2_gfdl -->
<g id="node12" class="node">
<title>u2_gfdl</title>
<ellipse fill="deepskyblue" stroke="black" cx="27.95" cy="-183.81" rx="27.9" ry="27.9"/>
<text text-anchor="middle" x="27.95" y="-180.11" font-family="Helvetica,sans-Serif" font-size="14.00" fill="white">user</text>
</g>
<!-- u2_gfdl&#45;&gt;gfdl -->
<g id="edge11" class="edge">
<title>u2_gfdl&#45;&gt;gfdl</title>
<path fill="none" stroke="white" d="M48.93,-202.76C64.1,-216.45 85.17,-235.47 104.15,-252.61"/>
<polygon fill="white" stroke="white" points="101.82,-255.22 111.58,-259.32 106.51,-250.02 101.82,-255.22"/>
</g>
<!-- u_esmg -->
<g id="node13" class="node">
<title>u_esmg</title>
<ellipse fill="salmon" stroke="black" cx="183.81" cy="-27.95" rx="27.9" ry="27.9"/>
<text text-anchor="middle" x="183.81" y="-24.25" font-family="Helvetica,sans-Serif" font-size="14.00" fill="white">user</text>
</g>
<!-- u_esmg&#45;&gt;esmg -->
<g id="edge12" class="edge">
<title>u_esmg&#45;&gt;esmg</title>
<path fill="none" stroke="white" d="M194.57,-53.91C201.96,-71.75 211.95,-95.88 220.58,-116.71"/>
<polygon fill="white" stroke="white" points="217.37,-118.12 224.44,-126.02 223.84,-115.44 217.37,-118.12"/>
</g>
<!-- u_fsu -->
<g id="node14" class="node">
<title>u_fsu</title>
<ellipse fill="orange" stroke="black" cx="404.24" cy="-27.95" rx="27.9" ry="27.9"/>
<text text-anchor="middle" x="404.24" y="-24.25" font-family="Helvetica,sans-Serif" font-size="14.00" fill="white">user</text>
</g>
<!-- u_fsu&#45;&gt;fsu -->
<g id="edge13" class="edge">
<title>u_fsu&#45;&gt;fsu</title>
<path fill="none" stroke="white" d="M393.48,-53.91C386.48,-70.82 377.13,-93.38 368.83,-113.43"/>
<polygon fill="white" stroke="white" points="365.57,-112.16 364.97,-122.74 372.03,-114.84 365.57,-112.16"/>
</g>
</g>
</svg>
